<?xml version="1.0" encoding="utf-8"?>
<!-- Generator: Adobe Illustrator 24.1.3, SVG Export Plug-In . SVG Version: 6.00 Build 0)  -->
<svg version="1.1" id="Layer_1" xmlns="http://www.w3.org/2000/svg" xmlns:xlink="http://www.w3.org/1999/xlink" x="0px" y="0px"
	 viewBox="0 0 352.6 84.8" style="enable-background:new 0 0 352.6 84.8;" xml:space="preserve">
<style type="text/css">
	.st0{fill:none;}
	.st1{fill-rule:evenodd;clip-rule:evenodd;fill:#4E008E;}
</style>
<g>
	<rect x="-0.1" y="0" class="st0" width="352.9" height="84.8"/>
	<g>
		<rect x="20.1" y="40.6" class="st1" width="9.2" height="3.7"/>
		<polygon class="st1" points="36.7,44.3 45.9,44.3 45.9,40.6 33,40.6 33,57.2 36.7,57.2 		"/>
		<path class="st1" d="M29.3,18.9v-3.8c-9.4,1.7-16.6,10-16.6,19.9v9.2h3.7v-9.2C16.4,27.2,21.9,20.6,29.3,18.9"/>
		<path class="st1" d="M49.5,40.6v11c0,9.1-7.4,16.6-16.6,16.6v3.7c11.2,0,20.2-9.1,20.2-20.2v-11H49.5z"/>
		<polygon class="st1" points="68,42.3 68,52.3 66.1,52.3 66.1,42.3 62.3,42.3 62.3,40.6 71.9,40.6 71.9,42.3 		"/>
		<path class="st1" d="M75.9,48.3L75.9,48.3c-0.6,0-1.4,0.1-1.9,0.2c-1.2,0.2-1.6,0.6-1.6,1.3c0,0.7,0.5,1.2,1.5,1.2
			c0.6,0,1.1-0.2,1.5-0.6c0.4-0.5,0.6-0.9,0.6-1.8V48.3z M77.7,47v3.1c0,1,0.1,1.7,0.2,2.2h-1.7c-0.1-0.4-0.1-0.8-0.1-1.2h0
			c-0.6,0.9-1.5,1.3-2.8,1.3c-1.7,0-2.8-1-2.8-2.5c0-1.4,0.8-2.2,3.2-2.6c0.7-0.1,1.7-0.2,2.2-0.2v-0.3c0-1.2-0.7-1.7-1.6-1.7
			c-1,0-1.6,0.6-1.6,1.5h-1.8c0.1-1.6,1.2-2.8,3.5-2.8C76.4,43.7,77.7,44.8,77.7,47z"/>
		<path class="st1" d="M91.3,47.1v5.1h-1.9v-4.9c0-1.5-0.6-2.1-1.5-2.1c-1.1,0-1.8,0.9-1.8,2.5v4.5h-1.9v-5.1c0-1.2-0.5-1.9-1.5-1.9
			c-1.1,0-1.8,1-1.8,2.6v4.5h-1.9v-8.3H81v1h0c0.6-0.8,1.3-1.2,2.3-1.2c1.1,0,2,0.5,2.5,1.5c0.6-1,1.4-1.5,2.7-1.5
			C90.2,43.7,91.3,44.9,91.3,47.1"/>
		<path class="st1" d="M94.6,48.1L94.6,48.1c0,1.8,0.8,2.9,2,2.9c1.3,0,2.1-1.1,2.1-2.9c0-1.8-0.8-2.9-2.1-2.9
			C95.4,45.2,94.6,46.3,94.6,48.1 M100.7,48.1c0,2.7-1.3,4.4-3.5,4.4c-1,0-2-0.5-2.4-1.3h0v4.1h-1.9V43.9h1.8v1.1h0
			c0.5-0.9,1.4-1.4,2.5-1.4C99.3,43.7,100.7,45.4,100.7,48.1z"/>
		<path class="st1" d="M103.2,47.2L103.2,47.2h4.2c-0.1-1.5-1-2.2-2.1-2.2C104.2,45.1,103.4,45.8,103.2,47.2 M107.3,49.8h1.9
			c-0.3,1.5-1.7,2.8-3.8,2.8c-2.5,0-4-1.8-4-4.5c0-2.5,1.5-4.3,4-4.3c1.9,0,3.3,1.1,3.7,2.8c0.2,0.5,0.2,1.1,0.2,2h-6.1
			c0.1,1.9,1,2.7,2.2,2.7C106.4,51.1,107.1,50.6,107.3,49.8z"/>
		<path class="st1" d="M115.2,43.9v1.7c-0.2,0-0.4-0.1-0.7-0.1c-1.5,0-2.3,1-2.3,2.7v4.1h-1.9v-8.3h1.7v1.2h0
			c0.6-0.9,1.3-1.3,2.4-1.3C114.8,43.8,115,43.9,115.2,43.9"/>
		<path class="st1" d="M117.3,47.2L117.3,47.2h4.2c-0.1-1.5-1-2.2-2.1-2.2C118.2,45.1,117.4,45.8,117.3,47.2 M121.3,49.8h1.9
			c-0.3,1.5-1.7,2.8-3.8,2.8c-2.5,0-4-1.8-4-4.5c0-2.5,1.5-4.3,4-4.3c1.9,0,3.3,1.1,3.7,2.8c0.2,0.5,0.2,1.1,0.2,2h-6.1
			c0.1,1.9,1,2.7,2.2,2.7C120.5,51.1,121.2,50.6,121.3,49.8z"/>
		<path class="st1" d="M125.9,47.2L125.9,47.2h4.2c-0.1-1.5-1-2.2-2.1-2.2C126.8,45.1,126,45.8,125.9,47.2 M129.9,49.8h1.9
			c-0.3,1.5-1.7,2.8-3.8,2.8c-2.5,0-4-1.8-4-4.5c0-2.5,1.5-4.3,4-4.3c1.9,0,3.3,1.1,3.7,2.8c0.2,0.5,0.2,1.1,0.2,2h-6.1
			c0.1,1.9,1,2.7,2.2,2.7C129.1,51.1,129.8,50.6,129.9,49.8z"/>
		<path class="st1" d="M140.4,47.2v5.1h-1.9v-4.9c0-1.5-0.6-2.1-1.7-2.1c-1.1,0-1.9,0.8-1.9,2.4v4.6H133v-8.3h1.8V45h0
			c0.5-0.8,1.4-1.3,2.5-1.3C139.2,43.7,140.4,44.9,140.4,47.2"/>
		<path class="st1" d="M150.5,48.3L150.5,48.3c-0.6,0-1.4,0.1-1.9,0.2c-1.2,0.2-1.6,0.6-1.6,1.3c0,0.7,0.5,1.2,1.5,1.2
			c0.6,0,1.1-0.2,1.5-0.6c0.4-0.5,0.6-0.9,0.6-1.8V48.3z M152.3,47v3.1c0,1,0.1,1.7,0.2,2.2h-1.7c-0.1-0.4-0.1-0.8-0.1-1.2h0
			c-0.6,0.9-1.5,1.3-2.8,1.3c-1.7,0-2.8-1-2.8-2.5c0-1.4,0.8-2.2,3.2-2.6c0.7-0.1,1.7-0.2,2.2-0.2v-0.3c0-1.2-0.7-1.7-1.6-1.7
			c-1,0-1.6,0.6-1.6,1.5h-1.8c0.1-1.6,1.2-2.8,3.5-2.8C151.1,43.7,152.3,44.8,152.3,47z"/>
		<path class="st1" d="M166,47.1v5.1h-1.9v-4.9c0-1.5-0.6-2.1-1.5-2.1c-1.1,0-1.8,0.9-1.8,2.5v4.5H159v-5.1c0-1.2-0.5-1.9-1.5-1.9
			c-1.1,0-1.8,1-1.8,2.6v4.5h-1.9v-8.3h1.8v1h0c0.6-0.8,1.3-1.2,2.3-1.2c1.1,0,2,0.5,2.5,1.5c0.6-1,1.4-1.5,2.7-1.5
			C164.9,43.7,166,44.9,166,47.1"/>
		<path class="st1" d="M179.6,47.1v5.1h-1.9v-4.9c0-1.5-0.6-2.1-1.5-2.1c-1.1,0-1.8,0.9-1.8,2.5v4.5h-1.9v-5.1
			c0-1.2-0.5-1.9-1.5-1.9c-1.1,0-1.8,1-1.8,2.6v4.5h-1.9v-8.3h1.8v1h0c0.6-0.8,1.3-1.2,2.3-1.2c1.1,0,2,0.5,2.5,1.5
			c0.6-1,1.4-1.5,2.7-1.5C178.5,43.7,179.6,44.9,179.6,47.1"/>
		<path class="st1" d="M186,48.3L186,48.3c-0.6,0-1.4,0.1-1.9,0.2c-1.2,0.2-1.6,0.6-1.6,1.3c0,0.7,0.5,1.2,1.5,1.2
			c0.6,0,1.1-0.2,1.5-0.6c0.4-0.5,0.6-0.9,0.6-1.8V48.3z M187.8,47v3.1c0,1,0.1,1.7,0.2,2.2h-1.7c-0.1-0.4-0.1-0.8-0.1-1.2h0
			c-0.6,0.9-1.5,1.3-2.8,1.3c-1.7,0-2.8-1-2.8-2.5c0-1.4,0.8-2.2,3.2-2.6c0.7-0.1,1.7-0.2,2.2-0.2v-0.3c0-1.2-0.7-1.7-1.6-1.7
			c-1,0-1.6,0.6-1.6,1.5h-1.8c0.1-1.6,1.2-2.8,3.5-2.8C186.6,43.7,187.8,44.8,187.8,47z"/>
		<path class="st1" d="M193.3,50.8v1.5c-0.3,0.1-0.7,0.1-1,0.1c-1.8,0-2.5-0.7-2.5-2.6v-4.4h-1.4v-1.4h1.4v-2.1h1.9v2.1h1.6v1.4
			h-1.6v4.2c0,0.9,0.3,1.3,1.1,1.3C192.9,50.8,193.2,50.8,193.3,50.8"/>
		<path class="st1" d="M198.6,50.8v1.5c-0.3,0.1-0.7,0.1-1,0.1c-1.8,0-2.5-0.7-2.5-2.6v-4.4h-1.4v-1.4h1.4v-2.1h1.9v2.1h1.6v1.4
			h-1.6v4.2c0,0.9,0.3,1.3,1.1,1.3C198.2,50.8,198.4,50.8,198.6,50.8"/>
		<path class="st1" d="M199.4,52.3L199.4,52.3v-8.3h1.9v8.3H199.4z M199.4,42.4v-1.8h1.9v1.8H199.4z"/>
		<polygon class="st1" points="208,52.3 204.8,48.2 204.7,48.2 204.7,52.3 202.9,52.3 202.9,40.6 204.7,40.6 204.7,47.3 204.8,47.3 
			207.8,43.9 210,43.9 206.5,47.7 210.4,52.3 		"/>
		<path class="st1" d="M211.8,48.1L211.8,48.1c0,1.8,0.8,2.9,2.1,2.9c1.3,0,2.1-1.1,2.1-2.9s-0.8-2.9-2.1-2.9
			C212.6,45.2,211.8,46.3,211.8,48.1 M218,48.1c0,2.7-1.6,4.4-4.1,4.4c-2.5,0-4.1-1.7-4.1-4.4c0-2.7,1.6-4.4,4.1-4.4
			C216.4,43.7,218,45.4,218,48.1z"/>
		<path class="st1" d="M224,43.9v1.7c-0.2,0-0.4-0.1-0.7-0.1c-1.5,0-2.3,1-2.3,2.7v4.1h-1.9v-8.3h1.7v1.2h0c0.6-0.9,1.3-1.3,2.4-1.3
			C223.5,43.8,223.7,43.9,224,43.9"/>
		<polygon class="st1" points="229.8,52.3 226.5,48.2 226.5,48.2 226.5,52.3 224.6,52.3 224.6,40.6 226.5,40.6 226.5,47.3 
			226.5,47.3 229.6,43.9 231.7,43.9 228.3,47.7 232.1,52.3 		"/>
		<path class="st1" d="M233.4,47.2L233.4,47.2h4.2c-0.1-1.5-1-2.2-2.1-2.2C234.4,45.1,233.6,45.8,233.4,47.2 M237.5,49.8h1.9
			c-0.3,1.5-1.7,2.8-3.8,2.8c-2.5,0-4-1.8-4-4.5c0-2.5,1.5-4.3,4-4.3c1.9,0,3.3,1.1,3.7,2.8c0.2,0.5,0.2,1.1,0.2,2h-6.1
			c0.1,1.9,1,2.7,2.2,2.7C236.6,51.1,237.3,50.6,237.5,49.8z"/>
		<path class="st1" d="M245.5,48.3L245.5,48.3c-0.6,0-1.4,0.1-1.9,0.2c-1.2,0.2-1.6,0.6-1.6,1.3c0,0.7,0.5,1.2,1.5,1.2
			c0.6,0,1.1-0.2,1.5-0.6c0.4-0.5,0.6-0.9,0.6-1.8V48.3z M247.3,47v3.1c0,1,0.1,1.7,0.2,2.2h-1.7c-0.1-0.4-0.1-0.8-0.1-1.2h0
			c-0.6,0.9-1.5,1.3-2.8,1.3c-1.7,0-2.8-1-2.8-2.5c0-1.4,0.8-2.2,3.2-2.6c0.7-0.1,1.7-0.2,2.2-0.2v-0.3c0-1.2-0.7-1.7-1.6-1.7
			c-1,0-1.6,0.6-1.6,1.5h-1.8c0.1-1.6,1.2-2.8,3.5-2.8C246,43.7,247.3,44.8,247.3,47z"/>
		<polygon class="st1" points="254,52.3 250.7,48.2 250.7,48.2 250.7,52.3 248.8,52.3 248.8,40.6 250.7,40.6 250.7,47.3 250.7,47.3 
			253.7,43.9 255.9,43.9 252.5,47.7 256.3,52.3 		"/>
		<path class="st1" d="M257.7,48.1L257.7,48.1c0,1.8,0.8,2.9,2.1,2.9c1.3,0,2.1-1.1,2.1-2.9s-0.8-2.9-2.1-2.9
			C258.5,45.2,257.7,46.3,257.7,48.1 M263.9,48.1c0,2.7-1.6,4.4-4.1,4.4c-2.5,0-4.1-1.7-4.1-4.4c0-2.7,1.6-4.4,4.1-4.4
			C262.4,43.7,263.9,45.4,263.9,48.1z"/>
		<path class="st1" d="M265,49v-5.1h1.9v4.9c0,1.5,0.6,2.1,1.7,2.1c1.1,0,1.9-0.8,1.9-2.4v-4.6h1.9v8.3h-1.8v-1.1h0
			c-0.5,0.8-1.4,1.3-2.5,1.3C266.1,52.5,265,51.3,265,49"/>
		<rect x="273.9" y="40.6" class="st1" width="1.9" height="11.7"/>
		<path class="st1" d="M277.3,49v-5.1h1.9v4.9c0,1.5,0.6,2.1,1.7,2.1c1.1,0,1.9-0.8,1.9-2.4v-4.6h1.9v8.3h-1.8v-1.1h0
			c-0.5,0.8-1.4,1.3-2.5,1.3C278.4,52.5,277.3,51.3,277.3,49"/>
		<polygon class="st1" points="68,58.9 68,68.8 66.1,68.8 66.1,58.9 62.3,58.9 62.3,57.1 71.9,57.1 71.9,58.9 		"/>
		<path class="st1" d="M75.9,64.9L75.9,64.9c-0.6,0-1.4,0.1-1.9,0.2c-1.2,0.2-1.6,0.6-1.6,1.3c0,0.7,0.5,1.2,1.5,1.2
			c0.6,0,1.1-0.2,1.5-0.6c0.4-0.5,0.6-0.9,0.6-1.8V64.9z M77.7,63.5v3.1c0,1,0.1,1.7,0.2,2.2h-1.7c-0.1-0.4-0.1-0.8-0.1-1.2h0
			c-0.6,0.9-1.5,1.3-2.8,1.3c-1.7,0-2.8-1-2.8-2.5c0-1.4,0.8-2.2,3.2-2.6c0.7-0.1,1.7-0.2,2.2-0.2v-0.3c0-1.2-0.7-1.7-1.6-1.7
			c-1,0-1.6,0.6-1.6,1.5h-1.8c0.1-1.6,1.2-2.8,3.5-2.8C76.4,60.2,77.7,61.3,77.7,63.5z"/>
		<path class="st1" d="M91.3,63.7v5.1h-1.9v-4.9c0-1.5-0.6-2.1-1.5-2.1c-1.1,0-1.8,0.9-1.8,2.5v4.5h-1.9v-5.1c0-1.2-0.5-1.9-1.5-1.9
			c-1.1,0-1.8,1-1.8,2.6v4.5h-1.9v-8.3H81v1h0c0.6-0.8,1.3-1.2,2.3-1.2c1.1,0,2,0.5,2.5,1.5c0.6-1,1.4-1.5,2.7-1.5
			C90.2,60.3,91.3,61.4,91.3,63.7"/>
		<path class="st1" d="M94.6,64.7L94.6,64.7c0,1.8,0.8,2.9,2,2.9c1.3,0,2.1-1.1,2.1-2.9c0-1.8-0.8-2.9-2.1-2.9
			C95.4,61.7,94.6,62.8,94.6,64.7 M100.7,64.7c0,2.7-1.3,4.4-3.5,4.4c-1,0-2-0.5-2.4-1.3h0v4.1h-1.9V60.5h1.8v1.1h0
			c0.5-0.9,1.4-1.4,2.5-1.4C99.3,60.3,100.7,62,100.7,64.7z"/>
		<path class="st1" d="M103.2,63.8L103.2,63.8h4.2c-0.1-1.5-1-2.2-2.1-2.2C104.2,61.6,103.4,62.4,103.2,63.8 M107.3,66.3h1.9
			c-0.3,1.5-1.7,2.8-3.8,2.8c-2.5,0-4-1.8-4-4.5c0-2.5,1.5-4.3,4-4.3c1.9,0,3.3,1.1,3.7,2.8c0.2,0.5,0.2,1.1,0.2,2h-6.1
			c0.1,1.9,1,2.7,2.2,2.7C106.4,67.7,107.1,67.1,107.3,66.3z"/>
		<path class="st1" d="M115.2,60.5v1.7c-0.2,0-0.4-0.1-0.7-0.1c-1.5,0-2.3,1-2.3,2.7v4.1h-1.9v-8.3h1.7v1.2h0
			c0.6-0.9,1.3-1.3,2.4-1.3C114.8,60.4,115,60.4,115.2,60.5"/>
		<path class="st1" d="M117.3,63.8L117.3,63.8h4.2c-0.1-1.5-1-2.2-2.1-2.2C118.2,61.6,117.4,62.4,117.3,63.8 M121.3,66.3h1.9
			c-0.3,1.5-1.7,2.8-3.8,2.8c-2.5,0-4-1.8-4-4.5c0-2.5,1.5-4.3,4-4.3c1.9,0,3.3,1.1,3.7,2.8c0.2,0.5,0.2,1.1,0.2,2h-6.1
			c0.1,1.9,1,2.7,2.2,2.7C120.5,67.7,121.2,67.1,121.3,66.3z"/>
		<path class="st1" d="M137.4,64.4c0,3-1.6,4.7-4.5,4.7s-4.5-1.6-4.5-4.7v-7.3h2v7.2c0,2,0.9,3,2.5,3c1.6,0,2.5-1,2.5-3v-7.2h2V64.4
			z"/>
		<path class="st1" d="M146.4,63.7v5.1h-1.9v-4.9c0-1.5-0.6-2.1-1.7-2.1c-1.1,0-1.9,0.8-1.9,2.4v4.6h-1.9v-8.3h1.8v1.1h0
			c0.5-0.8,1.4-1.3,2.5-1.3C145.2,60.3,146.4,61.4,146.4,63.7"/>
		<path class="st1" d="M147.9,68.8L147.9,68.8v-8.3h1.9v8.3H147.9z M147.9,58.9v-1.8h1.9v1.8H147.9z"/>
		<path class="st1" d="M153.3,68.8l-2.9-8.3h2l1.1,3.4c0.4,1.2,0.7,2.4,1.1,3.6h0c0.3-1.2,0.7-2.4,1.1-3.6l1.1-3.4h2l-2.9,8.3H153.3
			z"/>
		<path class="st1" d="M160.2,63.8L160.2,63.8h4.2c-0.1-1.5-1-2.2-2.1-2.2C161.2,61.6,160.4,62.4,160.2,63.8 M164.3,66.3h1.9
			c-0.3,1.5-1.7,2.8-3.8,2.8c-2.5,0-4-1.8-4-4.5c0-2.5,1.5-4.3,4-4.3c1.9,0,3.3,1.1,3.7,2.8c0.2,0.5,0.2,1.1,0.2,2h-6.1
			c0.1,1.9,1,2.7,2.2,2.7C163.5,67.7,164.1,67.1,164.3,66.3z"/>
		<path class="st1" d="M172.3,60.5v1.7c-0.2,0-0.4-0.1-0.7-0.1c-1.5,0-2.3,1-2.3,2.7v4.1h-1.9v-8.3h1.7v1.2h0
			c0.6-0.9,1.3-1.3,2.4-1.3C171.8,60.4,172,60.4,172.3,60.5"/>
		<path class="st1" d="M179.4,63.1h-1.8c0-1-0.6-1.5-1.6-1.5c-0.9,0-1.4,0.4-1.4,1c0,0.7,0.6,0.9,1.9,1.2c1.5,0.4,3.1,0.8,3.1,2.7
			c0,1.5-1.3,2.5-3.5,2.5c-2.2,0-3.6-1-3.6-3h1.9c0,1,0.6,1.6,1.7,1.6c1,0,1.5-0.4,1.5-1c0-0.9-0.7-1-2.1-1.4
			c-1.4-0.3-2.9-0.7-2.9-2.5c0-1.5,1.3-2.5,3.3-2.5C178.1,60.2,179.3,61.2,179.4,63.1"/>
		<path class="st1" d="M180.7,68.8L180.7,68.8v-8.3h1.9v8.3H180.7z M180.7,58.9v-1.8h1.9v1.8H180.7z"/>
		<path class="st1" d="M188.2,67.3v1.5c-0.3,0.1-0.7,0.1-1,0.1c-1.8,0-2.5-0.7-2.5-2.6v-4.4h-1.4v-1.4h1.4v-2.1h1.9v2.1h1.6v1.4
			h-1.6v4.2c0,0.9,0.3,1.3,1.1,1.3C187.9,67.4,188.1,67.4,188.2,67.3"/>
		<path class="st1" d="M193.4,69.2c-0.8,2.1-1.7,2.8-3.6,2.8c-0.4,0-0.7,0-0.9-0.1v-1.5c0.2,0.1,0.5,0.1,0.8,0.1
			c1,0,1.5-0.4,1.9-1.5l-3-8.4h2l2.1,6.2h0l2.1-6.2h1.9L193.4,69.2z"/>
		<path class="st1" d="M202.2,64.7L202.2,64.7c0,1.8,0.8,2.9,2.1,2.9s2.1-1.1,2.1-2.9c0-1.8-0.8-2.9-2.1-2.9S202.2,62.9,202.2,64.7
			 M208.5,64.7c0,2.7-1.6,4.4-4.1,4.4c-2.5,0-4.1-1.7-4.1-4.4c0-2.7,1.6-4.4,4.1-4.4C206.9,60.2,208.5,62,208.5,64.7z"/>
		<path class="st1" d="M211.8,59.8v0.7h1.6v1.4h-1.6v6.9H210v-6.9h-1.4v-1.4h1.4v-0.9c0-1.7,0.9-2.6,2.5-2.6c0.3,0,0.7,0.1,1,0.1
			v1.4c-0.1,0-0.3-0.1-0.5-0.1C212.2,58.5,211.8,58.8,211.8,59.8"/>
		<path class="st1" d="M223.9,63L223.9,63c-0.5-1.6-1-3.1-1.5-4.6h0c-0.5,1.6-0.9,3.1-1.5,4.6l-0.3,0.9h3.7L223.9,63z M220,65.7
			l-1.1,3.2h-2.1l4.2-11.7h2.6l4.2,11.7h-2.1l-1.1-3.2H220z"/>
		<path class="st1" d="M230.4,64.7L230.4,64.7c0,1.8,0.8,2.9,2,2.9c1.3,0,2.1-1.1,2.1-2.9c0-1.8-0.8-2.9-2.1-2.9
			C231.2,61.7,230.4,62.8,230.4,64.7 M236.5,64.7c0,2.7-1.3,4.4-3.5,4.4c-1,0-2-0.5-2.4-1.3h0v4.1h-1.9V60.5h1.8v1.1h0
			c0.5-0.9,1.4-1.4,2.5-1.4C235.1,60.3,236.5,62,236.5,64.7z"/>
		<path class="st1" d="M239.4,64.7L239.4,64.7c0,1.8,0.8,2.9,2,2.9c1.3,0,2.1-1.1,2.1-2.9c0-1.8-0.8-2.9-2.1-2.9
			C240.2,61.7,239.4,62.8,239.4,64.7 M245.4,64.7c0,2.7-1.3,4.4-3.5,4.4c-1,0-2-0.5-2.4-1.3h0v4.1h-1.9V60.5h1.8v1.1h0
			c0.5-0.9,1.4-1.4,2.5-1.4C244,60.3,245.4,62,245.4,64.7z"/>
		<rect x="246.6" y="57.1" class="st1" width="1.9" height="11.7"/>
		<path class="st1" d="M250,68.8L250,68.8v-8.3h1.9v8.3H250z M250,58.9v-1.8h1.9v1.8H250z"/>
		<path class="st1" d="M254.9,63.8L254.9,63.8h4.2c-0.1-1.5-1-2.2-2.1-2.2C255.9,61.6,255,62.4,254.9,63.8 M258.9,66.3h1.9
			c-0.3,1.5-1.7,2.8-3.8,2.8c-2.5,0-4-1.8-4-4.5c0-2.5,1.5-4.3,4-4.3c1.9,0,3.3,1.1,3.7,2.8c0.2,0.5,0.2,1.1,0.2,2h-6.1
			c0.1,1.9,1,2.7,2.2,2.7C258.1,67.7,258.8,67.1,258.9,66.3z"/>
		<path class="st1" d="M263.5,64.7L263.5,64.7c0,1.8,0.8,2.9,2.1,2.9c1.2,0,2-1.1,2-2.9c0-1.8-0.8-2.9-2-2.9
			C264.3,61.7,263.5,62.9,263.5,64.7 M267.6,68.8v-1.1h0c-0.5,0.9-1.4,1.3-2.5,1.3c-2.1,0-3.5-1.7-3.5-4.4c0-2.7,1.3-4.4,3.5-4.4
			c1,0,2,0.5,2.4,1.3h0v-4.4h1.9v11.7H267.6z"/>
		<path class="st1" d="M282.8,60.7h-2c0-1.5-0.8-2.2-2.3-2.2c-1.3,0-2,0.6-2,1.6c0,1.1,0.8,1.4,2.7,1.9c2.2,0.5,4,1.1,4,3.6
			c0,2.2-1.7,3.6-4.4,3.6c-2.8,0-4.5-1.4-4.5-4.1h2c0,1.7,0.9,2.5,2.5,2.5c1.5,0,2.3-0.7,2.3-1.8c0-1.2-0.9-1.4-2.6-1.9
			c-2.2-0.6-4-1.1-4-3.5c0-2,1.6-3.3,4.1-3.3C281.4,56.9,282.8,58.2,282.8,60.7"/>
		<path class="st1" d="M291.6,63.5h-1.9c-0.1-1.1-0.8-1.8-1.8-1.8c-1.3,0-2.1,1.1-2.1,2.9c0,1.8,0.8,2.9,2.1,2.9
			c1,0,1.7-0.8,1.8-1.9h2c-0.2,2-1.6,3.4-3.8,3.4c-2.5,0-4-1.7-4-4.4c0-2.7,1.6-4.4,4-4.4C290,60.2,291.5,61.6,291.6,63.5"/>
		<path class="st1" d="M292.7,68.8L292.7,68.8v-8.3h1.9v8.3H292.7z M292.7,58.9v-1.8h1.9v1.8H292.7z"/>
		<path class="st1" d="M297.6,63.8L297.6,63.8h4.2c-0.1-1.5-1-2.2-2.1-2.2C298.6,61.6,297.8,62.4,297.6,63.8 M301.7,66.3h1.9
			c-0.3,1.5-1.7,2.8-3.8,2.8c-2.5,0-4-1.8-4-4.5c0-2.5,1.5-4.3,4-4.3c1.9,0,3.3,1.1,3.7,2.8c0.2,0.5,0.2,1.1,0.2,2h-6.1
			c0.1,1.9,1,2.7,2.2,2.7C300.8,67.7,301.5,67.1,301.7,66.3z"/>
		<path class="st1" d="M312.1,63.7v5.1h-1.9v-4.9c0-1.5-0.6-2.1-1.7-2.1c-1.1,0-1.9,0.8-1.9,2.4v4.6h-1.9v-8.3h1.8v1.1h0
			c0.5-0.8,1.4-1.3,2.5-1.3C311,60.3,312.1,61.4,312.1,63.7"/>
		<path class="st1" d="M320.9,63.5h-2c-0.1-1.1-0.8-1.8-1.8-1.8c-1.3,0-2.1,1.1-2.1,2.9c0,1.8,0.8,2.9,2.1,2.9c1,0,1.7-0.8,1.8-1.9
			h2c-0.2,2-1.6,3.4-3.8,3.4c-2.5,0-4-1.7-4-4.4c0-2.7,1.6-4.4,4-4.4C319.3,60.2,320.8,61.6,320.9,63.5"/>
		<path class="st1" d="M323.4,63.8L323.4,63.8h4.2c-0.1-1.5-1-2.2-2.1-2.2C324.4,61.6,323.6,62.4,323.4,63.8 M327.5,66.3h1.9
			c-0.3,1.5-1.7,2.8-3.8,2.8c-2.5,0-4-1.8-4-4.5c0-2.5,1.5-4.3,4-4.3c1.9,0,3.3,1.1,3.7,2.8c0.2,0.5,0.2,1.1,0.2,2h-6.1
			c0.1,1.9,1,2.7,2.2,2.7C326.6,67.7,327.3,67.1,327.5,66.3z"/>
		<path class="st1" d="M336.9,63.1h-1.8c0-1-0.6-1.5-1.6-1.5c-0.9,0-1.4,0.4-1.4,1c0,0.7,0.6,0.9,1.9,1.2c1.5,0.4,3.1,0.8,3.1,2.7
			c0,1.5-1.3,2.5-3.5,2.5c-2.2,0-3.6-1-3.6-3h1.9c0,1,0.6,1.6,1.7,1.6c1,0,1.5-0.4,1.5-1c0-0.9-0.7-1-2.1-1.4
			c-1.4-0.3-2.9-0.7-2.9-2.5c0-1.5,1.3-2.5,3.3-2.5C335.6,60.2,336.9,61.2,336.9,63.1"/>
	</g>
</g>
</svg>
